<?xml version="1.0" encoding="UTF-8"?>
<svg xmlns="http://www.w3.org/2000/svg" xmlns:xlink="http://www.w3.org/1999/xlink" width="500" height="500" viewBox="0 0 500 500">
<rect x="-50" y="-50" width="600" height="600" fill="rgb(100%, 100%, 100%)" fill-opacity="1"/>
<path fill="none" stroke-width="1" stroke-linecap="butt" stroke-linejoin="miter" stroke="rgb(0%, 69.803922%, 93.333333%)" stroke-opacity="1" stroke-miterlimit="10" d="M 166.269531 305.882813 L 222.410156 328.621094 "/>
<path fill="none" stroke-width="1" stroke-linecap="butt" stroke-linejoin="miter" stroke="rgb(0%, 69.803922%, 93.333333%)" stroke-opacity="1" stroke-miterlimit="10" d="M 166.269531 305.882813 L 268.71875 257.390625 "/>
<path fill="none" stroke-width="1" stroke-linecap="butt" stroke-linejoin="miter" stroke="rgb(0%, 69.803922%, 93.333333%)" stroke-opacity="1" stroke-miterlimit="10" d="M 166.269531 305.882813 L 242.203125 364.257813 "/>
<path fill="none" stroke-width="1" stroke-linecap="butt" stroke-linejoin="miter" stroke="rgb(0%, 69.803922%, 93.333333%)" stroke-opacity="1" stroke-miterlimit="10" d="M 166.269531 305.882813 L 47.753906 289.078125 "/>
<path fill="none" stroke-width="1" stroke-linecap="butt" stroke-linejoin="miter" stroke="rgb(0%, 69.803922%, 93.333333%)" stroke-opacity="1" stroke-miterlimit="10" d="M 166.269531 305.882813 L 33.964844 238.382813 "/>
<path fill="none" stroke-width="1" stroke-linecap="butt" stroke-linejoin="miter" stroke="rgb(0%, 69.803922%, 93.333333%)" stroke-opacity="1" stroke-miterlimit="10" d="M 166.269531 305.882813 L 59.042969 219.117188 "/>
<path fill="none" stroke-width="1" stroke-linecap="butt" stroke-linejoin="miter" stroke="rgb(0%, 69.803922%, 93.333333%)" stroke-opacity="1" stroke-miterlimit="10" d="M 166.269531 305.882813 L 201.910156 357.410156 "/>
<path fill="none" stroke-width="1" stroke-linecap="butt" stroke-linejoin="miter" stroke="rgb(0%, 69.803922%, 93.333333%)" stroke-opacity="1" stroke-miterlimit="10" d="M 166.269531 305.882813 L 288.894531 228.820313 "/>
<path fill="none" stroke-width="1" stroke-linecap="butt" stroke-linejoin="miter" stroke="rgb(0%, 69.803922%, 93.333333%)" stroke-opacity="1" stroke-miterlimit="10" d="M 166.269531 305.882813 L 30 321.15625 "/>
<path fill="none" stroke-width="1" stroke-linecap="butt" stroke-linejoin="miter" stroke="rgb(0%, 69.803922%, 93.333333%)" stroke-opacity="1" stroke-miterlimit="10" d="M 166.269531 305.882813 L 180.847656 464.792969 "/>
<path fill="none" stroke-width="1" stroke-linecap="butt" stroke-linejoin="miter" stroke="rgb(0%, 69.803922%, 93.333333%)" stroke-opacity="1" stroke-miterlimit="10" d="M 166.269531 305.882813 L 196.421875 426.496094 "/>
<path fill="none" stroke-width="1" stroke-linecap="butt" stroke-linejoin="miter" stroke="rgb(0%, 69.803922%, 93.333333%)" stroke-opacity="1" stroke-miterlimit="10" d="M 166.269531 305.882813 L 257.394531 289.46875 "/>
<path fill="none" stroke-width="1" stroke-linecap="butt" stroke-linejoin="miter" stroke="rgb(0%, 69.803922%, 93.333333%)" stroke-opacity="1" stroke-miterlimit="10" d="M 166.269531 305.882813 L 114.914063 371.546875 "/>
<path fill="none" stroke-width="1" stroke-linecap="butt" stroke-linejoin="miter" stroke="rgb(0%, 69.803922%, 93.333333%)" stroke-opacity="1" stroke-miterlimit="10" d="M 166.269531 305.882813 L 291.464844 300.378906 "/>
<path fill="none" stroke-width="1" stroke-linecap="butt" stroke-linejoin="miter" stroke="rgb(0%, 69.803922%, 93.333333%)" stroke-opacity="1" stroke-miterlimit="10" d="M 166.269531 305.882813 L 140.769531 404.570313 "/>
<path fill="none" stroke-width="1" stroke-linecap="butt" stroke-linejoin="miter" stroke="rgb(0%, 69.803922%, 93.333333%)" stroke-opacity="1" stroke-miterlimit="10" d="M 166.269531 305.882813 L 238.660156 165.035156 "/>
<path fill="none" stroke-width="1" stroke-linecap="butt" stroke-linejoin="miter" stroke="rgb(0%, 69.803922%, 93.333333%)" stroke-opacity="1" stroke-miterlimit="10" d="M 222.410156 328.621094 L 268.71875 257.390625 "/>
<path fill="none" stroke-width="1" stroke-linecap="butt" stroke-linejoin="miter" stroke="rgb(0%, 69.803922%, 93.333333%)" stroke-opacity="1" stroke-miterlimit="10" d="M 222.410156 328.621094 L 242.203125 364.257813 "/>
<path fill="none" stroke-width="1" stroke-linecap="butt" stroke-linejoin="miter" stroke="rgb(0%, 69.803922%, 93.333333%)" stroke-opacity="1" stroke-miterlimit="10" d="M 222.410156 328.621094 L 201.910156 357.410156 "/>
<path fill="none" stroke-width="1" stroke-linecap="butt" stroke-linejoin="miter" stroke="rgb(0%, 69.803922%, 93.333333%)" stroke-opacity="1" stroke-miterlimit="10" d="M 222.410156 328.621094 L 257.394531 289.46875 "/>
<path fill="none" stroke-width="1" stroke-linecap="butt" stroke-linejoin="miter" stroke="rgb(0%, 69.803922%, 93.333333%)" stroke-opacity="1" stroke-miterlimit="10" d="M 222.410156 328.621094 L 114.914063 371.546875 "/>
<path fill="none" stroke-width="1" stroke-linecap="butt" stroke-linejoin="miter" stroke="rgb(0%, 69.803922%, 93.333333%)" stroke-opacity="1" stroke-miterlimit="10" d="M 222.410156 328.621094 L 291.464844 300.378906 "/>
<path fill="none" stroke-width="1" stroke-linecap="butt" stroke-linejoin="miter" stroke="rgb(0%, 69.803922%, 93.333333%)" stroke-opacity="1" stroke-miterlimit="10" d="M 222.410156 328.621094 L 140.769531 404.570313 "/>
<path fill="none" stroke-width="1" stroke-linecap="butt" stroke-linejoin="miter" stroke="rgb(0%, 69.803922%, 93.333333%)" stroke-opacity="1" stroke-miterlimit="10" d="M 222.410156 328.621094 L 334.652344 254.289063 "/>
<path fill="none" stroke-width="1" stroke-linecap="butt" stroke-linejoin="miter" stroke="rgb(0%, 69.803922%, 93.333333%)" stroke-opacity="1" stroke-miterlimit="10" d="M 268.71875 257.390625 L 242.203125 364.257813 "/>
<path fill="none" stroke-width="1" stroke-linecap="butt" stroke-linejoin="miter" stroke="rgb(0%, 69.803922%, 93.333333%)" stroke-opacity="1" stroke-miterlimit="10" d="M 268.71875 257.390625 L 201.910156 357.410156 "/>
<path fill="none" stroke-width="1" stroke-linecap="butt" stroke-linejoin="miter" stroke="rgb(0%, 69.803922%, 93.333333%)" stroke-opacity="1" stroke-miterlimit="10" d="M 268.71875 257.390625 L 288.894531 228.820313 "/>
<path fill="none" stroke-width="1" stroke-linecap="butt" stroke-linejoin="miter" stroke="rgb(0%, 69.803922%, 93.333333%)" stroke-opacity="1" stroke-miterlimit="10" d="M 268.71875 257.390625 L 386.816406 271.070313 "/>
<path fill="none" stroke-width="1" stroke-linecap="butt" stroke-linejoin="miter" stroke="rgb(0%, 69.803922%, 93.333333%)" stroke-opacity="1" stroke-miterlimit="10" d="M 268.71875 257.390625 L 257.394531 289.46875 "/>
<path fill="none" stroke-width="1" stroke-linecap="butt" stroke-linejoin="miter" stroke="rgb(0%, 69.803922%, 93.333333%)" stroke-opacity="1" stroke-miterlimit="10" d="M 268.71875 257.390625 L 259.742188 129.253906 "/>
<path fill="none" stroke-width="1" stroke-linecap="butt" stroke-linejoin="miter" stroke="rgb(0%, 69.803922%, 93.333333%)" stroke-opacity="1" stroke-miterlimit="10" d="M 268.71875 257.390625 L 287.402344 175.75 "/>
<path fill="none" stroke-width="1" stroke-linecap="butt" stroke-linejoin="miter" stroke="rgb(0%, 69.803922%, 93.333333%)" stroke-opacity="1" stroke-miterlimit="10" d="M 268.71875 257.390625 L 372.765625 159.027344 "/>
<path fill="none" stroke-width="1" stroke-linecap="butt" stroke-linejoin="miter" stroke="rgb(0%, 69.803922%, 93.333333%)" stroke-opacity="1" stroke-miterlimit="10" d="M 242.203125 364.257813 L 201.910156 357.410156 "/>
<path fill="none" stroke-width="1" stroke-linecap="butt" stroke-linejoin="miter" stroke="rgb(0%, 69.803922%, 93.333333%)" stroke-opacity="1" stroke-miterlimit="10" d="M 242.203125 364.257813 L 196.421875 426.496094 "/>
<path fill="none" stroke-width="1" stroke-linecap="butt" stroke-linejoin="miter" stroke="rgb(0%, 69.803922%, 93.333333%)" stroke-opacity="1" stroke-miterlimit="10" d="M 242.203125 364.257813 L 257.394531 289.46875 "/>
<path fill="none" stroke-width="1" stroke-linecap="butt" stroke-linejoin="miter" stroke="rgb(0%, 69.803922%, 93.333333%)" stroke-opacity="1" stroke-miterlimit="10" d="M 47.753906 289.078125 L 59.042969 219.117188 "/>
<path fill="none" stroke-width="1" stroke-linecap="butt" stroke-linejoin="miter" stroke="rgb(0%, 69.803922%, 93.333333%)" stroke-opacity="1" stroke-miterlimit="10" d="M 47.753906 289.078125 L 30 321.15625 "/>
<path fill="none" stroke-width="1" stroke-linecap="butt" stroke-linejoin="miter" stroke="rgb(0%, 69.803922%, 93.333333%)" stroke-opacity="1" stroke-miterlimit="10" d="M 33.964844 238.382813 L 59.042969 219.117188 "/>
<path fill="none" stroke-width="1" stroke-linecap="butt" stroke-linejoin="miter" stroke="rgb(0%, 69.803922%, 93.333333%)" stroke-opacity="1" stroke-miterlimit="10" d="M 33.964844 238.382813 L 30 321.15625 "/>
<path fill="none" stroke-width="1" stroke-linecap="butt" stroke-linejoin="miter" stroke="rgb(0%, 69.803922%, 93.333333%)" stroke-opacity="1" stroke-miterlimit="10" d="M 33.964844 238.382813 L 30.992188 123.054688 "/>
<path fill="none" stroke-width="1" stroke-linecap="butt" stroke-linejoin="miter" stroke="rgb(0%, 69.803922%, 93.333333%)" stroke-opacity="1" stroke-miterlimit="10" d="M 59.042969 219.117188 L 30.992188 123.054688 "/>
<path fill="none" stroke-width="1" stroke-linecap="butt" stroke-linejoin="miter" stroke="rgb(0%, 69.803922%, 93.333333%)" stroke-opacity="1" stroke-miterlimit="10" d="M 288.894531 228.820313 L 334.652344 254.289063 "/>
<path fill="none" stroke-width="1" stroke-linecap="butt" stroke-linejoin="miter" stroke="rgb(0%, 69.803922%, 93.333333%)" stroke-opacity="1" stroke-miterlimit="10" d="M 288.894531 228.820313 L 372.765625 159.027344 "/>
<path fill="none" stroke-width="1" stroke-linecap="butt" stroke-linejoin="miter" stroke="rgb(0%, 69.803922%, 93.333333%)" stroke-opacity="1" stroke-miterlimit="10" d="M 288.894531 228.820313 L 357.152344 171.109375 "/>
<path fill="none" stroke-width="1" stroke-linecap="butt" stroke-linejoin="miter" stroke="rgb(0%, 69.803922%, 93.333333%)" stroke-opacity="1" stroke-miterlimit="10" d="M 386.816406 271.070313 L 357.152344 171.109375 "/>
<path fill="none" stroke-width="1" stroke-linecap="butt" stroke-linejoin="miter" stroke="rgb(0%, 69.803922%, 93.333333%)" stroke-opacity="1" stroke-miterlimit="10" d="M 257.394531 289.46875 L 357.152344 171.109375 "/>
<path fill="none" stroke-width="1" stroke-linecap="butt" stroke-linejoin="miter" stroke="rgb(0%, 69.803922%, 93.333333%)" stroke-opacity="1" stroke-miterlimit="10" d="M 420.714844 92.082031 L 372.765625 159.027344 "/>
<path fill="none" stroke-width="1" stroke-linecap="butt" stroke-linejoin="miter" stroke="rgb(0%, 69.803922%, 93.333333%)" stroke-opacity="1" stroke-miterlimit="10" d="M 420.714844 92.082031 L 357.152344 171.109375 "/>
<path fill="none" stroke-width="1" stroke-linecap="butt" stroke-linejoin="miter" stroke="rgb(0%, 69.803922%, 93.333333%)" stroke-opacity="1" stroke-miterlimit="10" d="M 470 177.984375 L 372.765625 159.027344 "/>
<path fill="none" stroke-width="1" stroke-linecap="butt" stroke-linejoin="miter" stroke="rgb(0%, 69.803922%, 93.333333%)" stroke-opacity="1" stroke-miterlimit="10" d="M 470 177.984375 L 357.152344 171.109375 "/>
<path fill="none" stroke-width="1" stroke-linecap="butt" stroke-linejoin="miter" stroke="rgb(0%, 69.803922%, 93.333333%)" stroke-opacity="1" stroke-miterlimit="10" d="M 452.449219 211.980469 L 372.765625 159.027344 "/>
<path fill="none" stroke-width="1" stroke-linecap="butt" stroke-linejoin="miter" stroke="rgb(0%, 69.803922%, 93.333333%)" stroke-opacity="1" stroke-miterlimit="10" d="M 452.449219 211.980469 L 357.152344 171.109375 "/>
<path fill="none" stroke-width="1" stroke-linecap="butt" stroke-linejoin="miter" stroke="rgb(0%, 69.803922%, 93.333333%)" stroke-opacity="1" stroke-miterlimit="10" d="M 291.464844 300.378906 L 357.152344 171.109375 "/>
<path fill="none" stroke-width="1" stroke-linecap="butt" stroke-linejoin="miter" stroke="rgb(0%, 69.803922%, 93.333333%)" stroke-opacity="1" stroke-miterlimit="10" d="M 462.101563 142.96875 L 372.765625 159.027344 "/>
<path fill="none" stroke-width="1" stroke-linecap="butt" stroke-linejoin="miter" stroke="rgb(0%, 69.803922%, 93.333333%)" stroke-opacity="1" stroke-miterlimit="10" d="M 462.101563 142.96875 L 357.152344 171.109375 "/>
<path fill="none" stroke-width="1" stroke-linecap="butt" stroke-linejoin="miter" stroke="rgb(0%, 69.803922%, 93.333333%)" stroke-opacity="1" stroke-miterlimit="10" d="M 455.347656 107.628906 L 372.765625 159.027344 "/>
<path fill="none" stroke-width="1" stroke-linecap="butt" stroke-linejoin="miter" stroke="rgb(0%, 69.803922%, 93.333333%)" stroke-opacity="1" stroke-miterlimit="10" d="M 455.347656 107.628906 L 357.152344 171.109375 "/>
<path fill="none" stroke-width="1" stroke-linecap="butt" stroke-linejoin="miter" stroke="rgb(0%, 69.803922%, 93.333333%)" stroke-opacity="1" stroke-miterlimit="10" d="M 309.046875 79.347656 L 208.105469 57.273438 "/>
<path fill="none" stroke-width="1" stroke-linecap="butt" stroke-linejoin="miter" stroke="rgb(0%, 69.803922%, 93.333333%)" stroke-opacity="1" stroke-miterlimit="10" d="M 309.046875 79.347656 L 259.742188 129.253906 "/>
<path fill="none" stroke-width="1" stroke-linecap="butt" stroke-linejoin="miter" stroke="rgb(0%, 69.803922%, 93.333333%)" stroke-opacity="1" stroke-miterlimit="10" d="M 309.046875 79.347656 L 371.183594 69.652344 "/>
<path fill="none" stroke-width="1" stroke-linecap="butt" stroke-linejoin="miter" stroke="rgb(0%, 69.803922%, 93.333333%)" stroke-opacity="1" stroke-miterlimit="10" d="M 309.046875 79.347656 L 372.765625 159.027344 "/>
<path fill="none" stroke-width="1" stroke-linecap="butt" stroke-linejoin="miter" stroke="rgb(0%, 69.803922%, 93.333333%)" stroke-opacity="1" stroke-miterlimit="10" d="M 309.046875 79.347656 L 357.152344 171.109375 "/>
<path fill="none" stroke-width="1" stroke-linecap="butt" stroke-linejoin="miter" stroke="rgb(0%, 69.803922%, 93.333333%)" stroke-opacity="1" stroke-miterlimit="10" d="M 161.246094 103.066406 L 208.105469 57.273438 "/>
<path fill="none" stroke-width="1" stroke-linecap="butt" stroke-linejoin="miter" stroke="rgb(0%, 69.803922%, 93.333333%)" stroke-opacity="1" stroke-miterlimit="10" d="M 161.246094 103.066406 L 259.742188 129.253906 "/>
<path fill="none" stroke-width="1" stroke-linecap="butt" stroke-linejoin="miter" stroke="rgb(0%, 69.803922%, 93.333333%)" stroke-opacity="1" stroke-miterlimit="10" d="M 161.246094 103.066406 L 238.660156 165.035156 "/>
<path fill="none" stroke-width="1" stroke-linecap="butt" stroke-linejoin="miter" stroke="rgb(0%, 69.803922%, 93.333333%)" stroke-opacity="1" stroke-miterlimit="10" d="M 208.105469 57.273438 L 238.660156 165.035156 "/>
<path fill="none" stroke-width="1" stroke-linecap="butt" stroke-linejoin="miter" stroke="rgb(0%, 69.803922%, 93.333333%)" stroke-opacity="1" stroke-miterlimit="10" d="M 411.359375 35.207031 L 371.183594 69.652344 "/>
<path fill="none" stroke-width="1" stroke-linecap="butt" stroke-linejoin="miter" stroke="rgb(0%, 69.803922%, 93.333333%)" stroke-opacity="1" stroke-miterlimit="10" d="M 411.359375 35.207031 L 357.152344 171.109375 "/>
<path fill="none" stroke-width="1" stroke-linecap="butt" stroke-linejoin="miter" stroke="rgb(0%, 69.803922%, 93.333333%)" stroke-opacity="1" stroke-miterlimit="10" d="M 259.742188 129.253906 L 357.152344 171.109375 "/>
<path fill="none" stroke-width="1" stroke-linecap="butt" stroke-linejoin="miter" stroke="rgb(0%, 69.803922%, 93.333333%)" stroke-opacity="1" stroke-miterlimit="10" d="M 287.402344 175.75 L 238.660156 165.035156 "/>
<path fill="none" stroke-width="1" stroke-linecap="butt" stroke-linejoin="miter" stroke="rgb(0%, 69.803922%, 93.333333%)" stroke-opacity="1" stroke-miterlimit="10" d="M 287.402344 175.75 L 357.152344 171.109375 "/>
<path fill="none" stroke-width="1" stroke-linecap="butt" stroke-linejoin="miter" stroke="rgb(0%, 69.803922%, 93.333333%)" stroke-opacity="1" stroke-miterlimit="10" d="M 371.183594 69.652344 L 372.765625 159.027344 "/>
<path fill="none" stroke-width="1" stroke-linecap="butt" stroke-linejoin="miter" stroke="rgb(0%, 69.803922%, 93.333333%)" stroke-opacity="1" stroke-miterlimit="10" d="M 371.183594 69.652344 L 357.152344 171.109375 "/>
<path fill="none" stroke-width="1" stroke-linecap="butt" stroke-linejoin="miter" stroke="rgb(0%, 69.803922%, 93.333333%)" stroke-opacity="1" stroke-miterlimit="10" d="M 334.652344 254.289063 L 372.765625 159.027344 "/>
<path fill="none" stroke-width="1" stroke-linecap="butt" stroke-linejoin="miter" stroke="rgb(0%, 69.803922%, 93.333333%)" stroke-opacity="1" stroke-miterlimit="10" d="M 334.652344 254.289063 L 357.152344 171.109375 "/>
<path fill="none" stroke-width="1" stroke-linecap="butt" stroke-linejoin="miter" stroke="rgb(0%, 69.803922%, 93.333333%)" stroke-opacity="1" stroke-miterlimit="10" d="M 238.660156 165.035156 L 372.765625 159.027344 "/>
<path fill="none" stroke-width="1" stroke-linecap="butt" stroke-linejoin="miter" stroke="rgb(0%, 69.803922%, 93.333333%)" stroke-opacity="1" stroke-miterlimit="10" d="M 238.660156 165.035156 L 357.152344 171.109375 "/>
<path fill="none" stroke-width="1" stroke-linecap="butt" stroke-linejoin="miter" stroke="rgb(0%, 69.803922%, 93.333333%)" stroke-opacity="1" stroke-miterlimit="10" d="M 372.765625 159.027344 L 357.152344 171.109375 "/>
<path fill-rule="nonzero" fill="rgb(0%, 69.803922%, 93.333333%)" fill-opacity="1" stroke-width="1" stroke-linecap="butt" stroke-linejoin="miter" stroke="rgb(0%, 69.803922%, 93.333333%)" stroke-opacity="1" stroke-miterlimit="10" d="M 177.269531 305.882813 C 177.269531 311.960938 172.347656 316.882813 166.269531 316.882813 C 160.195313 316.882813 155.269531 311.960938 155.269531 305.882813 C 155.269531 299.808594 160.195313 294.882813 166.269531 294.882813 C 172.347656 294.882813 177.269531 299.808594 177.269531 305.882813 Z M 177.269531 305.882813 "/>
<path fill-rule="nonzero" fill="rgb(0%, 69.803922%, 93.333333%)" fill-opacity="1" stroke-width="1" stroke-linecap="butt" stroke-linejoin="miter" stroke="rgb(0%, 69.803922%, 93.333333%)" stroke-opacity="1" stroke-miterlimit="10" d="M 233.410156 328.621094 C 233.410156 334.699219 228.484375 339.621094 222.410156 339.621094 C 216.335938 339.621094 211.410156 334.699219 211.410156 328.621094 C 211.410156 322.546875 216.335938 317.621094 222.410156 317.621094 C 228.484375 317.621094 233.410156 322.546875 233.410156 328.621094 Z M 233.410156 328.621094 "/>
<path fill-rule="nonzero" fill="rgb(0%, 69.803922%, 93.333333%)" fill-opacity="1" stroke-width="1" stroke-linecap="butt" stroke-linejoin="miter" stroke="rgb(0%, 69.803922%, 93.333333%)" stroke-opacity="1" stroke-miterlimit="10" d="M 279.71875 257.390625 C 279.71875 263.46875 274.792969 268.390625 268.71875 268.390625 C 262.644531 268.390625 257.71875 263.46875 257.71875 257.390625 C 257.71875 251.316406 262.644531 246.390625 268.71875 246.390625 C 274.792969 246.390625 279.71875 251.316406 279.71875 257.390625 Z M 279.71875 257.390625 "/>
<path fill-rule="nonzero" fill="rgb(0%, 69.803922%, 93.333333%)" fill-opacity="1" stroke-width="1" stroke-linecap="butt" stroke-linejoin="miter" stroke="rgb(0%, 69.803922%, 93.333333%)" stroke-opacity="1" stroke-miterlimit="10" d="M 253.203125 364.257813 C 253.203125 370.335938 248.277344 375.257813 242.203125 375.257813 C 236.125 375.257813 231.203125 370.335938 231.203125 364.257813 C 231.203125 358.183594 236.125 353.257813 242.203125 353.257813 C 248.277344 353.257813 253.203125 358.183594 253.203125 364.257813 Z M 253.203125 364.257813 "/>
<path fill-rule="nonzero" fill="rgb(0%, 69.803922%, 93.333333%)" fill-opacity="1" stroke-width="1" stroke-linecap="butt" stroke-linejoin="miter" stroke="rgb(0%, 69.803922%, 93.333333%)" stroke-opacity="1" stroke-miterlimit="10" d="M 58.753906 289.078125 C 58.753906 295.15625 53.828125 300.078125 47.753906 300.078125 C 41.679688 300.078125 36.753906 295.15625 36.753906 289.078125 C 36.753906 283.003906 41.679688 278.078125 47.753906 278.078125 C 53.828125 278.078125 58.753906 283.003906 58.753906 289.078125 Z M 58.753906 289.078125 "/>
<path fill-rule="nonzero" fill="rgb(0%, 69.803922%, 93.333333%)" fill-opacity="1" stroke-width="1" stroke-linecap="butt" stroke-linejoin="miter" stroke="rgb(0%, 69.803922%, 93.333333%)" stroke-opacity="1" stroke-miterlimit="10" d="M 44.964844 238.382813 C 44.964844 244.457031 40.039063 249.382813 33.964844 249.382813 C 27.890625 249.382813 22.964844 244.457031 22.964844 238.382813 C 22.964844 232.308594 27.890625 227.382813 33.964844 227.382813 C 40.039063 227.382813 44.964844 232.308594 44.964844 238.382813 Z M 44.964844 238.382813 "/>
<path fill-rule="nonzero" fill="rgb(0%, 69.803922%, 93.333333%)" fill-opacity="1" stroke-width="1" stroke-linecap="butt" stroke-linejoin="miter" stroke="rgb(0%, 69.803922%, 93.333333%)" stroke-opacity="1" stroke-miterlimit="10" d="M 70.042969 219.117188 C 70.042969 225.195313 65.117188 230.117188 59.042969 230.117188 C 52.964844 230.117188 48.042969 225.195313 48.042969 219.117188 C 48.042969 213.042969 52.964844 208.117188 59.042969 208.117188 C 65.117188 208.117188 70.042969 213.042969 70.042969 219.117188 Z M 70.042969 219.117188 "/>
<path fill-rule="nonzero" fill="rgb(0%, 69.803922%, 93.333333%)" fill-opacity="1" stroke-width="1" stroke-linecap="butt" stroke-linejoin="miter" stroke="rgb(0%, 69.803922%, 93.333333%)" stroke-opacity="1" stroke-miterlimit="10" d="M 212.910156 357.410156 C 212.910156 363.484375 207.988281 368.410156 201.910156 368.410156 C 195.835938 368.410156 190.910156 363.484375 190.910156 357.410156 C 190.910156 351.332031 195.835938 346.410156 201.910156 346.410156 C 207.988281 346.410156 212.910156 351.332031 212.910156 357.410156 Z M 212.910156 357.410156 "/>
<path fill-rule="nonzero" fill="rgb(0%, 69.803922%, 93.333333%)" fill-opacity="1" stroke-width="1" stroke-linecap="butt" stroke-linejoin="miter" stroke="rgb(0%, 69.803922%, 93.333333%)" stroke-opacity="1" stroke-miterlimit="10" d="M 299.894531 228.820313 C 299.894531 234.894531 294.96875 239.820313 288.894531 239.820313 C 282.820313 239.820313 277.894531 234.894531 277.894531 228.820313 C 277.894531 222.746094 282.820313 217.820313 288.894531 217.820313 C 294.96875 217.820313 299.894531 222.746094 299.894531 228.820313 Z M 299.894531 228.820313 "/>
<path fill-rule="nonzero" fill="rgb(0%, 69.803922%, 93.333333%)" fill-opacity="1" stroke-width="1" stroke-linecap="butt" stroke-linejoin="miter" stroke="rgb(0%, 69.803922%, 93.333333%)" stroke-opacity="1" stroke-miterlimit="10" d="M 397.816406 271.070313 C 397.816406 277.144531 392.894531 282.070313 386.816406 282.070313 C 380.742188 282.070313 375.816406 277.144531 375.816406 271.070313 C 375.816406 264.996094 380.742188 260.070313 386.816406 260.070313 C 392.894531 260.070313 397.816406 264.996094 397.816406 271.070313 Z M 397.816406 271.070313 "/>
<path fill-rule="nonzero" fill="rgb(0%, 69.803922%, 93.333333%)" fill-opacity="1" stroke-width="1" stroke-linecap="butt" stroke-linejoin="miter" stroke="rgb(0%, 69.803922%, 93.333333%)" stroke-opacity="1" stroke-miterlimit="10" d="M 41 321.15625 C 41 327.230469 36.074219 332.15625 30 332.15625 C 23.925781 332.15625 19 327.230469 19 321.15625 C 19 315.082031 23.925781 310.15625 30 310.15625 C 36.074219 310.15625 41 315.082031 41 321.15625 Z M 41 321.15625 "/>
<path fill-rule="nonzero" fill="rgb(0%, 69.803922%, 93.333333%)" fill-opacity="1" stroke-width="1" stroke-linecap="butt" stroke-linejoin="miter" stroke="rgb(0%, 69.803922%, 93.333333%)" stroke-opacity="1" stroke-miterlimit="10" d="M 191.847656 464.792969 C 191.847656 470.871094 186.925781 475.792969 180.847656 475.792969 C 174.773438 475.792969 169.847656 470.871094 169.847656 464.792969 C 169.847656 458.71875 174.773438 453.792969 180.847656 453.792969 C 186.925781 453.792969 191.847656 458.71875 191.847656 464.792969 Z M 191.847656 464.792969 "/>
<path fill-rule="nonzero" fill="rgb(0%, 69.803922%, 93.333333%)" fill-opacity="1" stroke-width="1" stroke-linecap="butt" stroke-linejoin="miter" stroke="rgb(0%, 69.803922%, 93.333333%)" stroke-opacity="1" stroke-miterlimit="10" d="M 207.421875 426.496094 C 207.421875 432.574219 202.496094 437.496094 196.421875 437.496094 C 190.347656 437.496094 185.421875 432.574219 185.421875 426.496094 C 185.421875 420.421875 190.347656 415.496094 196.421875 415.496094 C 202.496094 415.496094 207.421875 420.421875 207.421875 426.496094 Z M 207.421875 426.496094 "/>
<path fill-rule="nonzero" fill="rgb(0%, 69.803922%, 93.333333%)" fill-opacity="1" stroke-width="1" stroke-linecap="butt" stroke-linejoin="miter" stroke="rgb(0%, 69.803922%, 93.333333%)" stroke-opacity="1" stroke-miterlimit="10" d="M 268.394531 289.46875 C 268.394531 295.542969 263.46875 300.46875 257.394531 300.46875 C 251.320313 300.46875 246.394531 295.542969 246.394531 289.46875 C 246.394531 283.394531 251.320313 278.46875 257.394531 278.46875 C 263.46875 278.46875 268.394531 283.394531 268.394531 289.46875 Z M 268.394531 289.46875 "/>
<path fill-rule="nonzero" fill="rgb(0%, 69.803922%, 93.333333%)" fill-opacity="1" stroke-width="1" stroke-linecap="butt" stroke-linejoin="miter" stroke="rgb(0%, 69.803922%, 93.333333%)" stroke-opacity="1" stroke-miterlimit="10" d="M 431.714844 92.082031 C 431.714844 98.160156 426.792969 103.082031 420.714844 103.082031 C 414.640625 103.082031 409.714844 98.160156 409.714844 92.082031 C 409.714844 86.007813 414.640625 81.082031 420.714844 81.082031 C 426.792969 81.082031 431.714844 86.007813 431.714844 92.082031 Z M 431.714844 92.082031 "/>
<path fill-rule="nonzero" fill="rgb(0%, 69.803922%, 93.333333%)" fill-opacity="1" stroke-width="1" stroke-linecap="butt" stroke-linejoin="miter" stroke="rgb(0%, 69.803922%, 93.333333%)" stroke-opacity="1" stroke-miterlimit="10" d="M 481 177.984375 C 481 184.058594 476.074219 188.984375 470 188.984375 C 463.925781 188.984375 459 184.058594 459 177.984375 C 459 171.910156 463.925781 166.984375 470 166.984375 C 476.074219 166.984375 481 171.910156 481 177.984375 Z M 481 177.984375 "/>
<path fill-rule="nonzero" fill="rgb(0%, 69.803922%, 93.333333%)" fill-opacity="1" stroke-width="1" stroke-linecap="butt" stroke-linejoin="miter" stroke="rgb(0%, 69.803922%, 93.333333%)" stroke-opacity="1" stroke-miterlimit="10" d="M 41.992188 123.054688 C 41.992188 129.128906 37.070313 134.054688 30.992188 134.054688 C 24.917969 134.054688 19.992188 129.128906 19.992188 123.054688 C 19.992188 116.980469 24.917969 112.054688 30.992188 112.054688 C 37.070313 112.054688 41.992188 116.980469 41.992188 123.054688 Z M 41.992188 123.054688 "/>
<path fill-rule="nonzero" fill="rgb(0%, 69.803922%, 93.333333%)" fill-opacity="1" stroke-width="1" stroke-linecap="butt" stroke-linejoin="miter" stroke="rgb(0%, 69.803922%, 93.333333%)" stroke-opacity="1" stroke-miterlimit="10" d="M 125.914063 371.546875 C 125.914063 377.625 120.988281 382.546875 114.914063 382.546875 C 108.839844 382.546875 103.914063 377.625 103.914063 371.546875 C 103.914063 365.472656 108.839844 360.546875 114.914063 360.546875 C 120.988281 360.546875 125.914063 365.472656 125.914063 371.546875 Z M 125.914063 371.546875 "/>
<path fill-rule="nonzero" fill="rgb(0%, 69.803922%, 93.333333%)" fill-opacity="1" stroke-width="1" stroke-linecap="butt" stroke-linejoin="miter" stroke="rgb(0%, 69.803922%, 93.333333%)" stroke-opacity="1" stroke-miterlimit="10" d="M 463.449219 211.980469 C 463.449219 218.054688 458.527344 222.980469 452.449219 222.980469 C 446.375 222.980469 441.449219 218.054688 441.449219 211.980469 C 441.449219 205.90625 446.375 200.980469 452.449219 200.980469 C 458.527344 200.980469 463.449219 205.90625 463.449219 211.980469 Z M 463.449219 211.980469 "/>
<path fill-rule="nonzero" fill="rgb(0%, 69.803922%, 93.333333%)" fill-opacity="1" stroke-width="1" stroke-linecap="butt" stroke-linejoin="miter" stroke="rgb(0%, 69.803922%, 93.333333%)" stroke-opacity="1" stroke-miterlimit="10" d="M 302.464844 300.378906 C 302.464844 306.457031 297.539063 311.378906 291.464844 311.378906 C 285.390625 311.378906 280.464844 306.457031 280.464844 300.378906 C 280.464844 294.304688 285.390625 289.378906 291.464844 289.378906 C 297.539063 289.378906 302.464844 294.304688 302.464844 300.378906 Z M 302.464844 300.378906 "/>
<path fill-rule="nonzero" fill="rgb(0%, 69.803922%, 93.333333%)" fill-opacity="1" stroke-width="1" stroke-linecap="butt" stroke-linejoin="miter" stroke="rgb(0%, 69.803922%, 93.333333%)" stroke-opacity="1" stroke-miterlimit="10" d="M 473.101563 142.96875 C 473.101563 149.046875 468.175781 153.96875 462.101563 153.96875 C 456.027344 153.96875 451.101563 149.046875 451.101563 142.96875 C 451.101563 136.894531 456.027344 131.96875 462.101563 131.96875 C 468.175781 131.96875 473.101563 136.894531 473.101563 142.96875 Z M 473.101563 142.96875 "/>
<path fill-rule="nonzero" fill="rgb(0%, 69.803922%, 93.333333%)" fill-opacity="1" stroke-width="1" stroke-linecap="butt" stroke-linejoin="miter" stroke="rgb(0%, 69.803922%, 93.333333%)" stroke-opacity="1" stroke-miterlimit="10" d="M 151.769531 404.570313 C 151.769531 410.644531 146.84375 415.570313 140.769531 415.570313 C 134.691406 415.570313 129.769531 410.644531 129.769531 404.570313 C 129.769531 398.496094 134.691406 393.570313 140.769531 393.570313 C 146.84375 393.570313 151.769531 398.496094 151.769531 404.570313 Z M 151.769531 404.570313 "/>
<path fill-rule="nonzero" fill="rgb(0%, 69.803922%, 93.333333%)" fill-opacity="1" stroke-width="1" stroke-linecap="butt" stroke-linejoin="miter" stroke="rgb(0%, 69.803922%, 93.333333%)" stroke-opacity="1" stroke-miterlimit="10" d="M 466.347656 107.628906 C 466.347656 113.703125 461.421875 118.628906 455.347656 118.628906 C 449.269531 118.628906 444.347656 113.703125 444.347656 107.628906 C 444.347656 101.554688 449.269531 96.628906 455.347656 96.628906 C 461.421875 96.628906 466.347656 101.554688 466.347656 107.628906 Z M 466.347656 107.628906 "/>
<path fill-rule="nonzero" fill="rgb(0%, 69.803922%, 93.333333%)" fill-opacity="1" stroke-width="1" stroke-linecap="butt" stroke-linejoin="miter" stroke="rgb(0%, 69.803922%, 93.333333%)" stroke-opacity="1" stroke-miterlimit="10" d="M 320.046875 79.347656 C 320.046875 85.425781 315.121094 90.347656 309.046875 90.347656 C 302.972656 90.347656 298.046875 85.425781 298.046875 79.347656 C 298.046875 73.273438 302.972656 68.347656 309.046875 68.347656 C 315.121094 68.347656 320.046875 73.273438 320.046875 79.347656 Z M 320.046875 79.347656 "/>
<path fill-rule="nonzero" fill="rgb(0%, 69.803922%, 93.333333%)" fill-opacity="1" stroke-width="1" stroke-linecap="butt" stroke-linejoin="miter" stroke="rgb(0%, 69.803922%, 93.333333%)" stroke-opacity="1" stroke-miterlimit="10" d="M 172.246094 103.066406 C 172.246094 109.144531 167.320313 114.066406 161.246094 114.066406 C 155.171875 114.066406 150.246094 109.144531 150.246094 103.066406 C 150.246094 96.992188 155.171875 92.066406 161.246094 92.066406 C 167.320313 92.066406 172.246094 96.992188 172.246094 103.066406 Z M 172.246094 103.066406 "/>
<path fill-rule="nonzero" fill="rgb(0%, 69.803922%, 93.333333%)" fill-opacity="1" stroke-width="1" stroke-linecap="butt" stroke-linejoin="miter" stroke="rgb(0%, 69.803922%, 93.333333%)" stroke-opacity="1" stroke-miterlimit="10" d="M 219.105469 57.273438 C 219.105469 63.347656 214.179688 68.273438 208.105469 68.273438 C 202.03125 68.273438 197.105469 63.347656 197.105469 57.273438 C 197.105469 51.199219 202.03125 46.273438 208.105469 46.273438 C 214.179688 46.273438 219.105469 51.199219 219.105469 57.273438 Z M 219.105469 57.273438 "/>
<path fill-rule="nonzero" fill="rgb(0%, 69.803922%, 93.333333%)" fill-opacity="1" stroke-width="1" stroke-linecap="butt" stroke-linejoin="miter" stroke="rgb(0%, 69.803922%, 93.333333%)" stroke-opacity="1" stroke-miterlimit="10" d="M 422.359375 35.207031 C 422.359375 41.28125 417.433594 46.207031 411.359375 46.207031 C 405.28125 46.207031 400.359375 41.28125 400.359375 35.207031 C 400.359375 29.128906 405.28125 24.207031 411.359375 24.207031 C 417.433594 24.207031 422.359375 29.128906 422.359375 35.207031 Z M 422.359375 35.207031 "/>
<path fill-rule="nonzero" fill="rgb(0%, 69.803922%, 93.333333%)" fill-opacity="1" stroke-width="1" stroke-linecap="butt" stroke-linejoin="miter" stroke="rgb(0%, 69.803922%, 93.333333%)" stroke-opacity="1" stroke-miterlimit="10" d="M 270.742188 129.253906 C 270.742188 135.332031 265.820313 140.253906 259.742188 140.253906 C 253.667969 140.253906 248.742188 135.332031 248.742188 129.253906 C 248.742188 123.179688 253.667969 118.253906 259.742188 118.253906 C 265.820313 118.253906 270.742188 123.179688 270.742188 129.253906 Z M 270.742188 129.253906 "/>
<path fill-rule="nonzero" fill="rgb(0%, 69.803922%, 93.333333%)" fill-opacity="1" stroke-width="1" stroke-linecap="butt" stroke-linejoin="miter" stroke="rgb(0%, 69.803922%, 93.333333%)" stroke-opacity="1" stroke-miterlimit="10" d="M 298.402344 175.75 C 298.402344 181.824219 293.476563 186.75 287.402344 186.75 C 281.328125 186.75 276.402344 181.824219 276.402344 175.75 C 276.402344 169.675781 281.328125 164.75 287.402344 164.75 C 293.476563 164.75 298.402344 169.675781 298.402344 175.75 Z M 298.402344 175.75 "/>
<path fill-rule="nonzero" fill="rgb(0%, 69.803922%, 93.333333%)" fill-opacity="1" stroke-width="1" stroke-linecap="butt" stroke-linejoin="miter" stroke="rgb(0%, 69.803922%, 93.333333%)" stroke-opacity="1" stroke-miterlimit="10" d="M 382.183594 69.652344 C 382.183594 75.726563 377.257813 80.652344 371.183594 80.652344 C 365.109375 80.652344 360.183594 75.726563 360.183594 69.652344 C 360.183594 63.578125 365.109375 58.652344 371.183594 58.652344 C 377.257813 58.652344 382.183594 63.578125 382.183594 69.652344 Z M 382.183594 69.652344 "/>
<path fill-rule="nonzero" fill="rgb(0%, 69.803922%, 93.333333%)" fill-opacity="1" stroke-width="1" stroke-linecap="butt" stroke-linejoin="miter" stroke="rgb(0%, 69.803922%, 93.333333%)" stroke-opacity="1" stroke-miterlimit="10" d="M 345.652344 254.289063 C 345.652344 260.367188 340.726563 265.289063 334.652344 265.289063 C 328.578125 265.289063 323.652344 260.367188 323.652344 254.289063 C 323.652344 248.214844 328.578125 243.289063 334.652344 243.289063 C 340.726563 243.289063 345.652344 248.214844 345.652344 254.289063 Z M 345.652344 254.289063 "/>
<path fill-rule="nonzero" fill="rgb(0%, 69.803922%, 93.333333%)" fill-opacity="1" stroke-width="1" stroke-linecap="butt" stroke-linejoin="miter" stroke="rgb(0%, 69.803922%, 93.333333%)" stroke-opacity="1" stroke-miterlimit="10" d="M 249.660156 165.035156 C 249.660156 171.113281 244.738281 176.035156 238.660156 176.035156 C 232.585938 176.035156 227.660156 171.113281 227.660156 165.035156 C 227.660156 158.960938 232.585938 154.035156 238.660156 154.035156 C 244.738281 154.035156 249.660156 158.960938 249.660156 165.035156 Z M 249.660156 165.035156 "/>
<path fill-rule="nonzero" fill="rgb(0%, 69.803922%, 93.333333%)" fill-opacity="1" stroke-width="1" stroke-linecap="butt" stroke-linejoin="miter" stroke="rgb(0%, 69.803922%, 93.333333%)" stroke-opacity="1" stroke-miterlimit="10" d="M 383.765625 159.027344 C 383.765625 165.101563 378.839844 170.027344 372.765625 170.027344 C 366.6875 170.027344 361.765625 165.101563 361.765625 159.027344 C 361.765625 152.953125 366.6875 148.027344 372.765625 148.027344 C 378.839844 148.027344 383.765625 152.953125 383.765625 159.027344 Z M 383.765625 159.027344 "/>
<path fill-rule="nonzero" fill="rgb(0%, 69.803922%, 93.333333%)" fill-opacity="1" stroke-width="1" stroke-linecap="butt" stroke-linejoin="miter" stroke="rgb(0%, 69.803922%, 93.333333%)" stroke-opacity="1" stroke-miterlimit="10" d="M 368.152344 171.109375 C 368.152344 177.183594 363.230469 182.109375 357.152344 182.109375 C 351.078125 182.109375 346.152344 177.183594 346.152344 171.109375 C 346.152344 165.035156 351.078125 160.109375 357.152344 160.109375 C 363.230469 160.109375 368.152344 165.035156 368.152344 171.109375 Z M 368.152344 171.109375 "/>
</svg>
