<?xml version="1.0" encoding="UTF-8"?>
<svg xmlns="http://www.w3.org/2000/svg"
     xmlns:xlink="http://www.w3.org/1999/xlink"
     version="1.2"
     width="100mm" height="100mm" viewBox="0 0 100 100"
     stroke="none"
     fill="#000000"
     stroke-width="0.3"
     font-size="3.88"
>
<defs>
  <marker id="arrow" markerWidth="15" markerHeight="7" refX="5" refY="3.5" orient="auto" markerUnits="strokeWidth">
    <path d="M0,0 L15,3.5 L0,7 z" stroke="context-stroke" fill="context-stroke"/>
  </marker>
</defs>
<g fill="#000000" fill-opacity="0.000" id="img-fa100f22-1">
  <g transform="translate(50,50)">
    <path d="M-50,-50 L50,-50 50,50 -50,50  z" class="primitive"/>
  </g>
</g>
<g stroke-width="0.51" stroke="#D3D3D3" id="img-fa100f22-2">
</g>
<g stroke-width="0.51" stroke="#D3D3D3" id="img-fa100f22-3">
  <g transform="translate(55.68,61.09)">
    <path fill="none" d="M0.37,4.14 L-0.37,-4.14 " class="primitive"/>
  </g>
  <g transform="translate(47.63,59.03)">
    <path fill="none" d="M7.26,6.76 L-7.26,-6.76 " class="primitive"/>
  </g>
  <g transform="translate(50.64,67.47)">
    <path fill="none" d="M3.78,-0.32 L-3.78,0.32 " class="primitive"/>
  </g>
  <g transform="translate(61.6,77.36)">
    <path fill="none" d="M-4.58,-8.77 L4.58,8.77 " class="primitive"/>
  </g>
  <g transform="translate(67.99,73.25)">
    <path fill="none" d="M-10.21,-5.41 L10.21,5.41 " class="primitive"/>
  </g>
  <g transform="translate(66.45,76.52)">
    <path fill="none" d="M-8.94,-8.3 L8.94,8.3 " class="primitive"/>
  </g>
  <g transform="translate(52.35,65.34)">
    <path fill="none" d="M2.22,0.96 L-2.22,-0.96 " class="primitive"/>
  </g>
  <g transform="translate(50.62,54.69)">
    <path fill="none" d="M4.84,10.69 L-4.84,-10.69 " class="primitive"/>
  </g>
  <g transform="translate(63.51,73.76)">
    <path fill="none" d="M-5.99,-5.54 L5.99,5.54 " class="primitive"/>
  </g>
  <g transform="translate(55.82,79.34)">
    <path fill="none" d="M0.32,-10.54 L-0.32,10.54 " class="primitive"/>
  </g>
  <g transform="translate(51.32,75.08)">
    <path fill="none" d="M3.95,-6.54 L-3.95,6.54 " class="primitive"/>
  </g>
  <g transform="translate(50.74,60.19)">
    <path fill="none" d="M4.34,5.42 L-4.34,-5.42 " class="primitive"/>
  </g>
  <g transform="translate(61.99,66.61)">
    <path fill="none" d="M-4.01,0.27 L4.01,-0.27 " class="primitive"/>
  </g>
  <g transform="translate(54.81,56.11)">
    <path fill="none" d="M1.17,9.13 L-1.17,-9.13 " class="primitive"/>
  </g>
  <g transform="translate(63.48,62.21)">
    <path fill="none" d="M-5.79,3.81 L5.79,-3.81 " class="primitive"/>
  </g>
  <g transform="translate(42.58,58.29)">
    <path fill="none" d="M12.11,7.75 L-12.11,-7.75 " class="primitive"/>
  </g>
  <g transform="translate(47.11,53.11)">
    <path fill="none" d="M6.31,1.62 L-6.31,-1.62 " class="primitive"/>
  </g>
  <g transform="translate(50.12,61.56)">
    <path fill="none" d="M3.93,-4.98 L-3.93,4.98 " class="primitive"/>
  </g>
  <g transform="translate(51.82,59.42)">
    <path fill="none" d="M2.23,-2.84 L-2.23,2.84 " class="primitive"/>
  </g>
  <g transform="translate(50.22,54.27)">
    <path fill="none" d="M3.18,0.58 L-3.18,-0.58 " class="primitive"/>
  </g>
  <g transform="translate(61.47,60.7)">
    <path fill="none" d="M-4.97,-4.35 L4.97,4.35 " class="primitive"/>
  </g>
  <g transform="translate(54.28,50.19)">
    <path fill="none" d="M0.56,3.22 L-0.56,-3.22 " class="primitive"/>
  </g>
  <g transform="translate(62.96,56.29)">
    <path fill="none" d="M-6.04,-0.87 L6.04,0.87 " class="primitive"/>
  </g>
  <g transform="translate(51.8,44.53)">
    <path fill="none" d="M2.82,8.93 L-2.82,-8.93 " class="primitive"/>
  </g>
  <g transform="translate(42.07,59.49)">
    <path fill="none" d="M-2.41,-6.76 L2.41,6.76 " class="primitive"/>
  </g>
  <g transform="translate(43.78,57.36)">
    <path fill="none" d="M-3.65,-4.88 L3.65,4.88 " class="primitive"/>
  </g>
  <g transform="translate(42.05,46.71)">
    <path fill="none" d="M-1.98,2.86 L1.98,-2.86 " class="primitive"/>
  </g>
  <g transform="translate(32.12,45.26)">
    <path fill="none" d="M5.57,4.65 L-5.57,-4.65 " class="primitive"/>
  </g>
  <g transform="translate(42.17,52.21)">
    <path fill="none" d="M-1.44,-0.54 L1.44,0.54 " class="primitive"/>
  </g>
  <g transform="translate(29.3,47.6)">
    <path fill="none" d="M8.08,2.85 L-8.08,-2.85 " class="primitive"/>
  </g>
  <g transform="translate(35.33,46.53)">
    <path fill="none" d="M2.59,3.14 L-2.59,-3.14 " class="primitive"/>
  </g>
  <g transform="translate(36.46,38.66)">
    <path fill="none" d="M2.23,10.64 L-2.23,-10.64 " class="primitive"/>
  </g>
  <g transform="translate(46.79,65.8)">
    <path fill="none" d="M-0.59,0.74 L0.59,-0.74 " class="primitive"/>
  </g>
  <g transform="translate(45.76,75.55)">
    <path fill="none" d="M-0.52,-5.83 L0.52,5.83 " class="primitive"/>
  </g>
  <g transform="translate(45.18,60.66)">
    <path fill="none" d="M-0.08,5.5 L0.08,-5.5 " class="primitive"/>
  </g>
  <g transform="translate(71.86,86.87)">
    <path fill="none" d="M-3.09,0.53 L3.09,-0.53 " class="primitive"/>
  </g>
  <g transform="translate(68.91,84.11)">
    <path fill="none" d="M-1.07,2.02 L1.07,-2.02 " class="primitive"/>
  </g>
  <g transform="translate(78.24,82.76)">
    <path fill="none" d="M0.77,-1.65 L-0.77,1.65 " class="primitive"/>
  </g>
  <g transform="translate(75.29,80)">
    <path fill="none" d="M2.71,-0.3 L-2.71,0.3 " class="primitive"/>
  </g>
  <g transform="translate(85.72,85.18)">
    <path fill="none" d="M-4.65,-4.45 L4.65,4.45 " class="primitive"/>
  </g>
  <g transform="translate(84.19,88.44)">
    <path fill="none" d="M-5.78,-1.87 L5.78,1.87 " class="primitive"/>
  </g>
  <g transform="translate(46.74,38.14)">
    <path fill="none" d="M-1.04,2.58 L1.04,-2.58 " class="primitive"/>
  </g>
  <g transform="translate(39.45,34.33)">
    <path fill="none" d="M4.57,6.59 L-4.57,-6.59 " class="primitive"/>
  </g>
  <g transform="translate(39.09,36.01)">
    <path fill="none" d="M4.73,5.07 L-4.73,-5.07 " class="primitive"/>
  </g>
  <g transform="translate(29.16,34.55)">
    <path fill="none" d="M-2.86,3.53 L2.86,-3.53 " class="primitive"/>
  </g>
  <g transform="translate(39.22,41.5)">
    <path fill="none" d="M5.26,10.28 L-5.26,-10.28 " class="primitive"/>
  </g>
  <g transform="translate(31.4,18.86)">
    <path fill="none" d="M-1.9,-5.71 L1.9,5.71 " class="primitive"/>
  </g>
  <g transform="translate(31.04,20.54)">
    <path fill="none" d="M-1.7,-7.35 L1.7,7.35 " class="primitive"/>
  </g>
  <g transform="translate(39.53,21.2)">
    <path fill="none" d="M4.34,-3.89 L-4.34,3.89 " class="primitive"/>
  </g>
  <g transform="translate(39.17,22.88)">
    <path fill="none" d="M4.84,-5.42 L-4.84,5.42 " class="primitive"/>
  </g>
  <g transform="translate(37.26,18.56)">
    <path fill="none" d="M2.68,-6.08 L-2.68,6.08 " class="primitive"/>
  </g>
  <g transform="translate(36.9,20.24)">
    <path fill="none" d="M3.09,-7.73 L-3.09,7.73 " class="primitive"/>
  </g>
  <g transform="translate(43.28,37.42)">
    <path fill="none" d="M8.72,6.7 L-8.72,-6.7 " class="primitive"/>
  </g>
  <g transform="translate(34.26,18.13)">
    <path fill="none" d="M0.31,-6.36 L-0.31,6.36 " class="primitive"/>
  </g>
  <g transform="translate(33.9,19.81)">
    <path fill="none" d="M0.62,-8.04 L-0.62,8.04 " class="primitive"/>
  </g>
  <g transform="translate(25.78,23.26)">
    <path fill="none" d="M-6.4,-2.39 L6.4,2.39 " class="primitive"/>
  </g>
  <g transform="translate(25.42,24.94)">
    <path fill="none" d="M-6.2,-3.76 L6.2,3.76 " class="primitive"/>
  </g>
  <g transform="translate(12.85,37.67)">
    <path fill="none" d="M3.57,-5.73 L-3.57,5.73 " class="primitive"/>
  </g>
  <g transform="translate(18.45,37.29)">
    <path fill="none" d="M-0.81,-5.1 L0.81,5.1 " class="primitive"/>
  </g>
  <g transform="translate(19.78,23.98)">
    <path fill="none" d="M-1.79,4.78 L1.79,-4.78 " class="primitive"/>
  </g>
  <g transform="translate(25.61,28.35)">
    <path fill="none" d="M-6.52,1.64 L6.52,-1.64 " class="primitive"/>
  </g>
  <g transform="translate(25.25,30.03)">
    <path fill="none" d="M-6.11,0.31 L6.11,-0.31 " class="primitive"/>
  </g>
  <g transform="translate(9.24,49.66)">
    <path fill="none" d="M0.57,2.99 L-0.57,-2.99 " class="primitive"/>
  </g>
  <g transform="translate(14.85,49.28)">
    <path fill="none" d="M-3.48,3.81 L3.48,-3.81 " class="primitive"/>
  </g>
  <g transform="translate(19.56,51.99)">
    <path fill="none" d="M-7.67,1.97 L7.67,-1.97 " class="primitive"/>
  </g>
  <g transform="translate(18.65,47.25)">
    <path fill="none" d="M-8.57,-1.94 L8.57,1.94 " class="primitive"/>
  </g>
  <g transform="translate(20.6,12.93)">
    <path fill="none" d="M-1.01,-2.91 L1.01,2.91 " class="primitive"/>
  </g>
  <g transform="translate(26.08,18.98)">
    <path fill="none" d="M-6.08,-9.16 L6.08,9.16 " class="primitive"/>
  </g>
  <g transform="translate(26.34,36.89)">
    <path fill="none" d="M-5.58,5.96 L5.58,-5.96 " class="primitive"/>
  </g>
  <g transform="translate(30.28,45.79)">
    <path fill="none" d="M0.73,-2.1 L-0.73,2.1 " class="primitive"/>
  </g>
  <g transform="translate(32.37,35.82)">
    <path fill="none" d="M-0.55,4.42 L0.55,-4.42 " class="primitive"/>
  </g>
  <g transform="translate(28.03,21.9)">
    <path fill="none" d="M-4.4,-3.3 L4.4,3.3 " class="primitive"/>
  </g>
  <g transform="translate(27.67,23.58)">
    <path fill="none" d="M-4.27,-4.73 L4.27,4.73 " class="primitive"/>
  </g>
  <g transform="translate(41.15,30.09)">
    <path fill="none" d="M5.71,2.98 L-5.71,-2.98 " class="primitive"/>
  </g>
  <g transform="translate(40.8,31.76)">
    <path fill="none" d="M5.93,1.65 L-5.93,-1.65 " class="primitive"/>
  </g>
  <g transform="translate(31.41,37.93)">
    <path fill="none" d="M-2.08,9.9 L2.08,-9.9 " class="primitive"/>
  </g>
  <g transform="translate(31.05,39.6)">
    <path fill="none" d="M-1.73,8.23 L1.73,-8.23 " class="primitive"/>
  </g>
  <g transform="translate(33.5,27.95)">
    <path fill="none" d="M-0.01,0.07 L0.01,-0.07 " class="primitive"/>
  </g>
</g>
<g fill="#D3D3D3" id="img-fa100f22-4">
</g>
<g fill="#D3D3D3" id="img-fa100f22-5">
</g>
<g font-size="4" fill="#000000" id="img-fa100f22-6">
</g>
<g stroke-width="0" stroke="#000000" stroke-opacity="0.000" fill="#40E0D0" id="img-fa100f22-7">
  <g transform="translate(56.2,67.01)">
    <circle cx="0" cy="0" r="1.71" class="primitive"/>
  </g>
  <g transform="translate(55.15,55.17)">
    <circle cx="0" cy="0" r="1.71" class="primitive"/>
  </g>
  <g transform="translate(39.06,51.05)">
    <circle cx="0" cy="0" r="1.71" class="primitive"/>
  </g>
  <g transform="translate(45.08,67.94)">
    <circle cx="0" cy="0" r="1.71" class="primitive"/>
  </g>
  <g transform="translate(67.01,87.71)">
    <circle cx="0" cy="0" r="1.71" class="primitive"/>
  </g>
  <g transform="translate(79.77,79.5)">
    <circle cx="0" cy="0" r="1.71" class="primitive"/>
  </g>
  <g transform="translate(76.71,86.03)">
    <circle cx="0" cy="0" r="1.71" class="primitive"/>
  </g>
  <g transform="translate(48.49,63.67)">
    <circle cx="0" cy="0" r="1.71" class="primitive"/>
  </g>
  <g transform="translate(45.04,42.38)">
    <circle cx="0" cy="0" r="1.71" class="primitive"/>
  </g>
  <g transform="translate(25.18,39.47)">
    <circle cx="0" cy="0" r="1.71" class="primitive"/>
  </g>
  <g transform="translate(70.81,80.5)">
    <circle cx="0" cy="0" r="1.71" class="primitive"/>
  </g>
  <g transform="translate(55.44,91.67)">
    <circle cx="0" cy="0" r="1.71" class="primitive"/>
  </g>
  <g transform="translate(46.45,83.15)">
    <circle cx="0" cy="0" r="1.71" class="primitive"/>
  </g>
  <g transform="translate(45.29,53.38)">
    <circle cx="0" cy="0" r="1.71" class="primitive"/>
  </g>
  <g transform="translate(28.94,11.46)">
    <circle cx="0" cy="0" r="1.71" class="primitive"/>
  </g>
  <g transform="translate(45.2,16.12)">
    <circle cx="0" cy="0" r="1.71" class="primitive"/>
  </g>
  <g transform="translate(91.67,90.86)">
    <circle cx="0" cy="0" r="1.71" class="primitive"/>
  </g>
  <g transform="translate(67.78,66.22)">
    <circle cx="0" cy="0" r="1.71" class="primitive"/>
  </g>
  <g transform="translate(40.65,10.85)">
    <circle cx="0" cy="0" r="1.71" class="primitive"/>
  </g>
  <g transform="translate(53.41,45.2)">
    <circle cx="0" cy="0" r="1.71" class="primitive"/>
  </g>
  <g transform="translate(34.66,9.99)">
    <circle cx="0" cy="0" r="1.71" class="primitive"/>
  </g>
  <g transform="translate(70.76,57.42)">
    <circle cx="0" cy="0" r="1.71" class="primitive"/>
  </g>
  <g transform="translate(17.7,20.25)">
    <circle cx="0" cy="0" r="1.71" class="primitive"/>
  </g>
  <g transform="translate(17.36,30.42)">
    <circle cx="0" cy="0" r="1.71" class="primitive"/>
  </g>
  <g transform="translate(10.16,54.41)">
    <circle cx="0" cy="0" r="1.71" class="primitive"/>
  </g>
  <g transform="translate(8.33,44.92)">
    <circle cx="0" cy="0" r="1.71" class="primitive"/>
  </g>
  <g transform="translate(19.01,8.33)">
    <circle cx="0" cy="0" r="1.71" class="primitive"/>
  </g>
  <g transform="translate(19.54,44.15)">
    <circle cx="0" cy="0" r="1.71" class="primitive"/>
  </g>
  <g transform="translate(31.6,42.01)">
    <circle cx="0" cy="0" r="1.71" class="primitive"/>
  </g>
  <g transform="translate(22.2,17.53)">
    <circle cx="0" cy="0" r="1.71" class="primitive"/>
  </g>
  <g transform="translate(48.45,33.9)">
    <circle cx="0" cy="0" r="1.71" class="primitive"/>
  </g>
  <g transform="translate(28.96,49.58)">
    <circle cx="0" cy="0" r="1.71" class="primitive"/>
  </g>
  <g transform="translate(33.86,26.27)">
    <circle cx="0" cy="0" r="1.71" class="primitive"/>
  </g>
  <g transform="translate(33.15,29.63)">
    <circle cx="0" cy="0" r="1.71" class="primitive"/>
  </g>
</g>
<g font-family="Helvetica" font-size="4" fill="#000000" id="img-fa100f22-8">
  <g transform="translate(56.2,67.01)">
    <g class="primitive">
      <text text-anchor="middle" dy="0.35em">1</text>
    </g>
  </g>
  <g transform="translate(55.15,55.17)">
    <g class="primitive">
      <text text-anchor="middle" dy="0.35em">2</text>
    </g>
  </g>
  <g transform="translate(39.06,51.05)">
    <g class="primitive">
      <text text-anchor="middle" dy="0.35em">3</text>
    </g>
  </g>
  <g transform="translate(45.08,67.94)">
    <g class="primitive">
      <text text-anchor="middle" dy="0.35em">4</text>
    </g>
  </g>
  <g transform="translate(67.01,87.71)">
    <g class="primitive">
      <text text-anchor="middle" dy="0.35em">5</text>
    </g>
  </g>
  <g transform="translate(79.77,79.5)">
    <g class="primitive">
      <text text-anchor="middle" dy="0.35em">6</text>
    </g>
  </g>
  <g transform="translate(76.71,86.03)">
    <g class="primitive">
      <text text-anchor="middle" dy="0.35em">7</text>
    </g>
  </g>
  <g transform="translate(48.49,63.67)">
    <g class="primitive">
      <text text-anchor="middle" dy="0.35em">8</text>
    </g>
  </g>
  <g transform="translate(45.04,42.38)">
    <g class="primitive">
      <text text-anchor="middle" dy="0.35em">9</text>
    </g>
  </g>
  <g transform="translate(25.18,39.47)">
    <g class="primitive">
      <text text-anchor="middle" dy="0.35em">10</text>
    </g>
  </g>
  <g transform="translate(70.81,80.5)">
    <g class="primitive">
      <text text-anchor="middle" dy="0.35em">11</text>
    </g>
  </g>
  <g transform="translate(55.44,91.67)">
    <g class="primitive">
      <text text-anchor="middle" dy="0.35em">12</text>
    </g>
  </g>
  <g transform="translate(46.45,83.15)">
    <g class="primitive">
      <text text-anchor="middle" dy="0.35em">13</text>
    </g>
  </g>
  <g transform="translate(45.29,53.38)">
    <g class="primitive">
      <text text-anchor="middle" dy="0.35em">14</text>
    </g>
  </g>
  <g transform="translate(28.94,11.46)">
    <g class="primitive">
      <text text-anchor="middle" dy="0.35em">15</text>
    </g>
  </g>
  <g transform="translate(45.2,16.12)">
    <g class="primitive">
      <text text-anchor="middle" dy="0.35em">16</text>
    </g>
  </g>
  <g transform="translate(91.67,90.86)">
    <g class="primitive">
      <text text-anchor="middle" dy="0.35em">17</text>
    </g>
  </g>
  <g transform="translate(67.78,66.22)">
    <g class="primitive">
      <text text-anchor="middle" dy="0.35em">18</text>
    </g>
  </g>
  <g transform="translate(40.65,10.85)">
    <g class="primitive">
      <text text-anchor="middle" dy="0.35em">19</text>
    </g>
  </g>
  <g transform="translate(53.41,45.2)">
    <g class="primitive">
      <text text-anchor="middle" dy="0.35em">20</text>
    </g>
  </g>
  <g transform="translate(34.66,9.99)">
    <g class="primitive">
      <text text-anchor="middle" dy="0.35em">21</text>
    </g>
  </g>
  <g transform="translate(70.76,57.42)">
    <g class="primitive">
      <text text-anchor="middle" dy="0.35em">22</text>
    </g>
  </g>
  <g transform="translate(17.7,20.25)">
    <g class="primitive">
      <text text-anchor="middle" dy="0.35em">23</text>
    </g>
  </g>
  <g transform="translate(17.36,30.42)">
    <g class="primitive">
      <text text-anchor="middle" dy="0.35em">24</text>
    </g>
  </g>
  <g transform="translate(10.16,54.41)">
    <g class="primitive">
      <text text-anchor="middle" dy="0.35em">25</text>
    </g>
  </g>
  <g transform="translate(8.33,44.92)">
    <g class="primitive">
      <text text-anchor="middle" dy="0.35em">26</text>
    </g>
  </g>
  <g transform="translate(19.01,8.33)">
    <g class="primitive">
      <text text-anchor="middle" dy="0.35em">27</text>
    </g>
  </g>
  <g transform="translate(19.54,44.15)">
    <g class="primitive">
      <text text-anchor="middle" dy="0.35em">28</text>
    </g>
  </g>
  <g transform="translate(31.6,42.01)">
    <g class="primitive">
      <text text-anchor="middle" dy="0.35em">29</text>
    </g>
  </g>
  <g transform="translate(22.2,17.53)">
    <g class="primitive">
      <text text-anchor="middle" dy="0.35em">30</text>
    </g>
  </g>
  <g transform="translate(48.45,33.9)">
    <g class="primitive">
      <text text-anchor="middle" dy="0.35em">31</text>
    </g>
  </g>
  <g transform="translate(28.96,49.58)">
    <g class="primitive">
      <text text-anchor="middle" dy="0.35em">32</text>
    </g>
  </g>
  <g transform="translate(33.86,26.27)">
    <g class="primitive">
      <text text-anchor="middle" dy="0.35em">33</text>
    </g>
  </g>
  <g transform="translate(33.15,29.63)">
    <g class="primitive">
      <text text-anchor="middle" dy="0.35em">34</text>
    </g>
  </g>
</g>
<g font-family="Helvetica" font-size="4" fill="#000000" id="img-fa100f22-9">
  <g transform="translate(50,0)">
    <g class="primitive">
      <text text-anchor="middle" dy="0.35em"></text>
    </g>
  </g>
</g>
</svg>
